<?xml version="1.0" encoding="utf-8"?>
<!-- Generator: Adobe Illustrator 16.0.0, SVG Export Plug-In . SVG Version: 6.00 Build 0)  -->
<!DOCTYPE svg PUBLIC "-//W3C//DTD SVG 1.1//EN" "http://www.w3.org/Graphics/SVG/1.1/DTD/svg11.dtd">
<svg version="1.1" xmlns="http://www.w3.org/2000/svg" xmlns:xlink="http://www.w3.org/1999/xlink" x="0px" y="0px"
	 width="595.276px" height="340.157px" viewBox="0 0 595.276 340.157" enable-background="new 0 0 595.276 340.157"
	 xml:space="preserve">
<g id="grid" display="none">
	
		<rect x="-5.123" y="254.157" display="inline" fill="#FFFFFF" stroke="#B5B5B6" stroke-miterlimit="10" width="55.693" height="55.693"/>
	
		<rect x="50.57" y="254.157" display="inline" fill="#FFFFFF" stroke="#B5B5B6" stroke-miterlimit="10" width="55.693" height="55.693"/>
	
		<rect x="106.263" y="254.157" display="inline" fill="#FFFFFF" stroke="#B5B5B6" stroke-miterlimit="10" width="55.693" height="55.693"/>
	
		<rect x="161.956" y="254.157" display="inline" fill="#FFFFFF" stroke="#B5B5B6" stroke-miterlimit="10" width="55.693" height="55.693"/>
	
		<rect x="217.649" y="254.157" display="inline" fill="#FFFFFF" stroke="#B5B5B6" stroke-miterlimit="10" width="55.693" height="55.693"/>
	
		<rect x="-5.123" y="309.851" display="inline" fill="#FFFFFF" stroke="#B5B5B6" stroke-miterlimit="10" width="55.693" height="55.692"/>
	
		<rect x="50.57" y="309.851" display="inline" fill="#FFFFFF" stroke="#B5B5B6" stroke-miterlimit="10" width="55.693" height="55.692"/>
	
		<rect x="106.263" y="309.851" display="inline" fill="#FFFFFF" stroke="#B5B5B6" stroke-miterlimit="10" width="55.693" height="55.692"/>
	
		<rect x="161.956" y="309.851" display="inline" fill="#FFFFFF" stroke="#B5B5B6" stroke-miterlimit="10" width="55.693" height="55.692"/>
	
		<rect x="217.649" y="309.851" display="inline" fill="#FFFFFF" stroke="#B5B5B6" stroke-miterlimit="10" width="55.693" height="55.692"/>
	
		<rect x="-5.123" y="142.772" display="inline" fill="#FFFFFF" stroke="#B5B5B6" stroke-miterlimit="10" width="55.693" height="55.693"/>
	
		<rect x="50.57" y="142.772" display="inline" fill="#FFFFFF" stroke="#B5B5B6" stroke-miterlimit="10" width="55.693" height="55.693"/>
	
		<rect x="106.263" y="142.772" display="inline" fill="#FFFFFF" stroke="#B5B5B6" stroke-miterlimit="10" width="55.693" height="55.693"/>
	
		<rect x="161.956" y="142.772" display="inline" fill="#FFFFFF" stroke="#B5B5B6" stroke-miterlimit="10" width="55.693" height="55.693"/>
	
		<rect x="217.649" y="142.772" display="inline" fill="#FFFFFF" stroke="#B5B5B6" stroke-miterlimit="10" width="55.693" height="55.693"/>
	
		<rect x="-5.123" y="198.466" display="inline" fill="#FFFFFF" stroke="#B5B5B6" stroke-miterlimit="10" width="55.693" height="55.691"/>
	
		<rect x="50.57" y="198.466" display="inline" fill="#FFFFFF" stroke="#B5B5B6" stroke-miterlimit="10" width="55.693" height="55.691"/>
	
		<rect x="106.263" y="198.466" display="inline" fill="#FFFFFF" stroke="#B5B5B6" stroke-miterlimit="10" width="55.693" height="55.691"/>
	
		<rect x="161.956" y="198.466" display="inline" fill="#FFFFFF" stroke="#B5B5B6" stroke-miterlimit="10" width="55.693" height="55.691"/>
	
		<rect x="217.649" y="198.466" display="inline" fill="#FFFFFF" stroke="#B5B5B6" stroke-miterlimit="10" width="55.693" height="55.691"/>
	
		<rect x="273.341" y="254.157" display="inline" fill="#FFFFFF" stroke="#B5B5B6" stroke-miterlimit="10" width="55.692" height="55.693"/>
	
		<rect x="329.034" y="254.157" display="inline" fill="#FFFFFF" stroke="#B5B5B6" stroke-miterlimit="10" width="55.693" height="55.693"/>
	
		<rect x="384.727" y="254.157" display="inline" fill="#FFFFFF" stroke="#B5B5B6" stroke-miterlimit="10" width="55.693" height="55.693"/>
	
		<rect x="273.341" y="309.851" display="inline" fill="#FFFFFF" stroke="#B5B5B6" stroke-miterlimit="10" width="55.692" height="55.692"/>
	
		<rect x="329.034" y="309.851" display="inline" fill="#FFFFFF" stroke="#B5B5B6" stroke-miterlimit="10" width="55.693" height="55.692"/>
	
		<rect x="384.727" y="309.851" display="inline" fill="#FFFFFF" stroke="#B5B5B6" stroke-miterlimit="10" width="55.693" height="55.692"/>
	
		<rect x="273.341" y="142.772" display="inline" fill="#FFFFFF" stroke="#B5B5B6" stroke-miterlimit="10" width="55.692" height="55.693"/>
	
		<rect x="329.034" y="142.772" display="inline" fill="#FFFFFF" stroke="#B5B5B6" stroke-miterlimit="10" width="55.693" height="55.693"/>
	
		<rect x="384.727" y="142.772" display="inline" fill="#FFFFFF" stroke="#B5B5B6" stroke-miterlimit="10" width="55.693" height="55.693"/>
	
		<rect x="273.341" y="198.466" display="inline" fill="#FFFFFF" stroke="#B5B5B6" stroke-miterlimit="10" width="55.692" height="55.691"/>
	
		<rect x="329.034" y="198.466" display="inline" fill="#FFFFFF" stroke="#B5B5B6" stroke-miterlimit="10" width="55.693" height="55.691"/>
	
		<rect x="384.727" y="198.466" display="inline" fill="#FFFFFF" stroke="#B5B5B6" stroke-miterlimit="10" width="55.693" height="55.691"/>
	
		<rect x="-5.123" y="31.388" display="inline" fill="#FFFFFF" stroke="#B5B5B6" stroke-miterlimit="10" width="55.693" height="55.693"/>
	
		<rect x="50.57" y="31.388" display="inline" fill="#FFFFFF" stroke="#B5B5B6" stroke-miterlimit="10" width="55.693" height="55.693"/>
	
		<rect x="106.263" y="31.388" display="inline" fill="#FFFFFF" stroke="#B5B5B6" stroke-miterlimit="10" width="55.693" height="55.693"/>
	
		<rect x="161.956" y="31.388" display="inline" fill="#FFFFFF" stroke="#B5B5B6" stroke-miterlimit="10" width="55.693" height="55.693"/>
	<polygon display="inline" fill="#FFFFFF" stroke="#B5B5B6" stroke-miterlimit="10" points="273.342,87.081 217.649,87.081 
		217.649,59.234 217.649,31.388 273.342,31.388 	"/>
	
		<rect x="-5.123" y="87.081" display="inline" fill="#FFFFFF" stroke="#B5B5B6" stroke-miterlimit="10" width="55.693" height="55.691"/>
	
		<rect x="50.57" y="87.081" display="inline" fill="#FFFFFF" stroke="#B5B5B6" stroke-miterlimit="10" width="55.693" height="55.691"/>
	
		<rect x="106.263" y="87.081" display="inline" fill="#FFFFFF" stroke="#B5B5B6" stroke-miterlimit="10" width="55.693" height="55.691"/>
	
		<rect x="161.956" y="87.081" display="inline" fill="#FFFFFF" stroke="#B5B5B6" stroke-miterlimit="10" width="55.693" height="55.691"/>
	
		<rect x="217.649" y="87.081" display="inline" fill="#FFFFFF" stroke="#B5B5B6" stroke-miterlimit="10" width="55.693" height="55.691"/>
	
		<rect x="273.341" y="31.388" display="inline" fill="#FFFFFF" stroke="#B5B5B6" stroke-miterlimit="10" width="55.692" height="55.693"/>
	
		<rect x="329.034" y="31.388" display="inline" fill="#FFFFFF" stroke="#B5B5B6" stroke-miterlimit="10" width="55.693" height="55.693"/>
	
		<rect x="384.727" y="31.388" display="inline" fill="#FFFFFF" stroke="#B5B5B6" stroke-miterlimit="10" width="55.693" height="55.693"/>
	
		<rect x="273.341" y="87.081" display="inline" fill="#FFFFFF" stroke="#B5B5B6" stroke-miterlimit="10" width="55.692" height="55.691"/>
	
		<rect x="329.034" y="87.081" display="inline" fill="#FFFFFF" stroke="#B5B5B6" stroke-miterlimit="10" width="55.693" height="55.691"/>
	
		<rect x="384.727" y="87.081" display="inline" fill="#FFFFFF" stroke="#B5B5B6" stroke-miterlimit="10" width="55.693" height="55.691"/>
	
		<rect x="440.42" y="254.157" display="inline" fill="#FFFFFF" stroke="#B5B5B6" stroke-miterlimit="10" width="55.693" height="55.693"/>
	
		<rect x="496.114" y="254.157" display="inline" fill="#FFFFFF" stroke="#B5B5B6" stroke-miterlimit="10" width="55.693" height="55.693"/>
	
		<rect x="440.42" y="309.851" display="inline" fill="#FFFFFF" stroke="#B5B5B6" stroke-miterlimit="10" width="55.693" height="55.692"/>
	
		<rect x="496.114" y="309.851" display="inline" fill="#FFFFFF" stroke="#B5B5B6" stroke-miterlimit="10" width="55.693" height="55.692"/>
	
		<rect x="440.42" y="142.772" display="inline" fill="#FFFFFF" stroke="#B5B5B6" stroke-miterlimit="10" width="55.693" height="55.693"/>
	
		<rect x="496.114" y="142.772" display="inline" fill="#FFFFFF" stroke="#B5B5B6" stroke-miterlimit="10" width="55.693" height="55.693"/>
	
		<rect x="440.42" y="198.466" display="inline" fill="#FFFFFF" stroke="#B5B5B6" stroke-miterlimit="10" width="55.693" height="55.691"/>
	
		<rect x="496.114" y="198.466" display="inline" fill="#FFFFFF" stroke="#B5B5B6" stroke-miterlimit="10" width="55.693" height="55.691"/>
	
		<rect x="440.42" y="31.388" display="inline" fill="#FFFFFF" stroke="#B5B5B6" stroke-miterlimit="10" width="55.693" height="55.693"/>
	
		<rect x="496.114" y="31.388" display="inline" fill="#FFFFFF" stroke="#B5B5B6" stroke-miterlimit="10" width="55.693" height="55.693"/>
	
		<rect x="440.42" y="87.081" display="inline" fill="#FFFFFF" stroke="#B5B5B6" stroke-miterlimit="10" width="55.693" height="55.691"/>
	
		<rect x="496.114" y="87.081" display="inline" fill="#FFFFFF" stroke="#B5B5B6" stroke-miterlimit="10" width="55.693" height="55.691"/>
	
		<line display="inline" fill="#FFFFFF" stroke="#B5B5B6" stroke-miterlimit="10" x1="161.956" y1="31.388" x2="496.114" y2="365.543"/>
	
		<line display="inline" fill="#FFFFFF" stroke="#B5B5B6" stroke-miterlimit="10" x1="106.263" y1="31.388" x2="440.42" y2="365.543"/>
	
		<line display="inline" fill="#FFFFFF" stroke="#B5B5B6" stroke-miterlimit="10" x1="189.802" y1="170.619" x2="356.88" y2="170.619"/>
	
		<line display="inline" fill="#FFFFFF" stroke="#B5B5B6" stroke-miterlimit="10" x1="245.496" y1="226.312" x2="412.574" y2="226.312"/>
	<polyline display="inline" fill="none" stroke="#B5B5B6" stroke-miterlimit="10" points="384.727,198.466 329.034,254.157 
		329.034,309.851 440.42,198.466 	"/>
	<polyline display="inline" fill="#FFFFFF" stroke="#B5B5B6" stroke-miterlimit="10" points="329.035,114.927 161.947,114.927 
		-5.123,114.927 	"/>
	
		<line display="inline" fill="#FFFFFF" stroke="#B5B5B6" stroke-miterlimit="10" x1="301.187" y1="114.927" x2="301.187" y2="87.081"/>
	
		<line display="inline" fill="#FFFFFF" stroke="#B5B5B6" stroke-miterlimit="10" x1="301.187" y1="101.004" x2="273.341" y2="101.004"/>
	
		<line display="inline" fill="#FFFFFF" stroke="#B5B5B6" stroke-miterlimit="10" x1="287.264" y1="101.004" x2="287.264" y2="277.105"/>
	<polyline display="inline" fill="none" stroke="#B5B5B6" stroke-miterlimit="10" points="205.36,282.004 273.342,282.004 
		356.88,198.466 	"/>
	
		<line display="inline" fill="#FFFFFF" stroke="#B5B5B6" stroke-miterlimit="10" x1="384.727" y1="59.234" x2="217.649" y2="59.234"/>
	
		<line display="inline" fill="#FFFFFF" stroke="#B5B5B6" stroke-miterlimit="10" x1="134.11" y1="142.773" x2="134.11" y2="114.927"/>
	<line display="inline" fill="#FFFFFF" stroke="#B5B5B6" stroke-miterlimit="10" x1="134.11" y1="128.85" x2="356.88" y2="128.85"/>
	<polyline display="inline" fill="#FFFFFF" stroke="#B5B5B6" stroke-miterlimit="10" points="245.496,309.851 245.496,213.438 
		245.495,31.388 	"/>
	
		<line display="inline" fill="#FFFFFF" stroke="#B5B5B6" stroke-miterlimit="10" x1="245.496" y1="211.771" x2="217.649" y2="211.771"/>
	
		<line display="inline" fill="#FFFFFF" stroke="#B5B5B6" stroke-miterlimit="10" x1="231.572" y1="211.771" x2="231.572" y2="94.105"/>
	
		<line display="inline" fill="#FFFFFF" stroke="#B5B5B6" stroke-miterlimit="10" x1="148.193" y1="114.927" x2="148.193" y2="128.85"/>
	
		<line display="inline" fill="#FFFFFF" stroke="#B5B5B6" stroke-miterlimit="10" x1="148.193" y1="121.888" x2="231.572" y2="121.888"/>
	<polyline display="inline" fill="#FFFFFF" stroke="#B5B5B6" stroke-miterlimit="10" points="217.649,206.771 224.611,206.771 
		231.572,206.771 	"/>
	
		<line display="inline" fill="#FFFFFF" stroke="#B5B5B6" stroke-miterlimit="10" x1="224.611" y1="105.438" x2="224.611" y2="206.771"/>
</g>
<g id="圖層_2" display="none">
	<polyline display="inline" fill="none" stroke="#1D2088" stroke-width="2" stroke-miterlimit="10" points="-5.123,309.851 
		161.956,309.851 217.649,198.466 217.649,142.772 237.305,106.736 	"/>
	<path display="inline" fill="none" stroke="#1D2088" stroke-width="2" stroke-miterlimit="10" d="M301.187,226.312"/>
	<polyline display="inline" fill="none" stroke="#1D2088" stroke-width="2" stroke-miterlimit="10" points="237.305,106.736 
		273.341,142.772 301.187,198.466 	"/>
	
		<circle display="inline" fill="#FFFFFF" stroke="#1D2088" stroke-width="2" stroke-miterlimit="10" cx="280.303" cy="-22.602" r="19.656"/>
	
		<rect x="440.42" y="31.388" display="inline" fill="none" stroke="#1D2088" stroke-width="2" stroke-miterlimit="10" width="27.847" height="83.539"/>
	
		<rect x="338.786" y="244.32" transform="matrix(0.866 -0.5 0.5 0.866 -90.5982 213.2833)" display="inline" fill="none" stroke="#1D2088" stroke-width="2" stroke-miterlimit="10" width="27.847" height="62.774"/>
	
		<line display="inline" fill="none" stroke="#1D2088" stroke-width="2" stroke-miterlimit="10" x1="295.611" y1="205.39" x2="337.38" y2="277.737"/>
	
		<rect x="217.649" y="87.081" display="inline" fill="#FFFFFF" stroke="#1D2088" stroke-width="2" stroke-miterlimit="10" width="27.847" height="36.051"/>
	
		<line display="inline" fill="none" stroke="#1D2088" stroke-width="2" stroke-miterlimit="10" x1="551.807" y1="309.851" x2="356.88" y2="309.851"/>
</g>
<g id="圖層_3" display="none">
	<polyline display="inline" fill="none" stroke="#E61673" stroke-width="2" stroke-miterlimit="10" points="-5.123,309.851 
		161.956,309.851 217.649,198.466 217.649,142.772 228.362,123.131 217.649,123.131 217.649,87.081 245.496,87.081 245.496,114.927 
		273.342,142.772 301.187,198.466 292.693,205.39 324.958,255.486 349.074,241.563 380.46,295.928 356.344,309.851 551.807,309.851 
			"/>
</g>
<g id="圖層_4" display="none">
	<polyline display="inline" fill="none" stroke="#F39800" stroke-width="2" stroke-miterlimit="10" points="-5.123,282.004 
		161.956,282.004 217.649,198.466 217.649,142.772 228.362,123.131 217.649,114.927 217.649,87.081 245.496,87.081 245.496,114.927 
		273.342,142.772 297.638,170.079 298.908,198.466 319.36,231.438 339.061,216.383 376.693,268.105 353.36,282.004 551.807,282.004 
			"/>
</g>
<g id="圖層_5" display="none">
	<polyline display="inline" fill="none" stroke="#F39800" stroke-width="2" stroke-miterlimit="10" points="-5.123,282.004 
		161.956,282.004 217.649,198.466 217.649,142.772 224.611,121.888 217.649,114.927 217.649,87.081 245.496,87.081 245.496,114.927 
		273.342,142.772 301.187,170.619 301.187,198.466 287.264,212.388 315.111,240.234 342.958,212.389 384.727,254.157 
		356.88,282.004 551.807,282.004 	"/>
</g>
<g id="圖層_7">
	<path fill="none" stroke="#000000" stroke-width="4" stroke-miterlimit="10" d="M19.437,264.577c0,0,149.815,0,157.482,0
		s7.674,2.885,15.777-9.27s43.642-65.461,43.642-65.461s5.871-5.834,5.871-16.834s0-38.667,0-38.667s-0.429-7.712,2.905-17.713
		c3.333-10,2.517-7.55,2.517-7.55s2.231-3.929-1.186-7.346s-2.667-2.667-2.667-2.667s-1.57-0.642-1.57-6.558s0-14.75,0-14.75
		s-0.957-8.108,3.46-8.108s21.167,0,21.167,0s3.219-0.809,3.219,3.858s0,19.417,0,19.417s0.104,4.676,2.604,7.176
		s49.708,49.708,49.708,49.708s3.379,2.865,3.379,7.865s0,18.5,0,18.5s-0.191,5.053-2.484,7.344
		c-2.291,2.291-8.875,8.875-8.875,8.875s-1.449,3.68,1.238,6.367s20.125,20.124,20.125,20.124s3.734,4.105,8.297-0.457
		s19.688-19.687,19.688-19.687s3.049-4.516,7.486-0.078s35,35,35,35s3.471,2.658,0.596,5.533s-21.75,21.75-21.75,21.75
		s-5.689,3.627,1.936,3.627s189.363,0,189.363,0"/>
</g>
<!-- <style>
	#圖層_7 {
		Stroke-dasharray: 1000;
		Stroke-dashoffset: 1000;

		animation: Move linear;
		animation-duration: 2s;
		animation-iteration-count: infinite;
	}

	@keyframes Move {
		100% {
			stroke-dashoffset: 0;
		}
	}


</style> -->
</svg>
